<mxfile host="app.diagrams.net" modified="2024-04-04T09:38:46.673Z" agent="Mozilla/5.0 (Windows NT 10.0; Win64; x64) AppleWebKit/537.36 (KHTML, like Gecko) Chrome/123.0.0.0 Safari/537.36" etag="-vKMc6xcUI3YC7e-92mQ" version="21.7.5" type="github">
  <diagram id="C5RBs43oDa-KdzZeNtuy" name="Page-1">
    <mxGraphModel dx="2627" dy="968" grid="1" gridSize="10" guides="1" tooltips="1" connect="1" arrows="1" fold="1" page="1" pageScale="1" pageWidth="827" pageHeight="1169" math="0" shadow="0">
      <root>
        <mxCell id="WIyWlLk6GJQsqaUBKTNV-0" />
        <mxCell id="WIyWlLk6GJQsqaUBKTNV-1" parent="WIyWlLk6GJQsqaUBKTNV-0" />
        <mxCell id="dGlcEm0h6czmAKeLoBkT-8" value="" style="group" parent="WIyWlLk6GJQsqaUBKTNV-1" vertex="1" connectable="0">
          <mxGeometry x="41" y="40" width="80" height="110" as="geometry" />
        </mxCell>
        <mxCell id="dGlcEm0h6czmAKeLoBkT-5" value="" style="whiteSpace=wrap;html=1;shape=mxgraph.basic.document" parent="dGlcEm0h6czmAKeLoBkT-8" vertex="1">
          <mxGeometry width="60" height="90" as="geometry" />
        </mxCell>
        <mxCell id="dGlcEm0h6czmAKeLoBkT-6" value="" style="whiteSpace=wrap;html=1;shape=mxgraph.basic.document" parent="dGlcEm0h6czmAKeLoBkT-8" vertex="1">
          <mxGeometry x="10" y="10" width="60" height="90" as="geometry" />
        </mxCell>
        <mxCell id="dGlcEm0h6czmAKeLoBkT-7" value="CSV files" style="whiteSpace=wrap;html=1;shape=mxgraph.basic.document" parent="dGlcEm0h6czmAKeLoBkT-8" vertex="1">
          <mxGeometry x="20" y="20" width="60" height="90" as="geometry" />
        </mxCell>
        <mxCell id="dGlcEm0h6czmAKeLoBkT-9" style="edgeStyle=orthogonalEdgeStyle;rounded=0;orthogonalLoop=1;jettySize=auto;html=1;exitX=0.5;exitY=1;exitDx=0;exitDy=0;exitPerimeter=0;" parent="WIyWlLk6GJQsqaUBKTNV-1" source="dGlcEm0h6czmAKeLoBkT-7" target="dGlcEm0h6czmAKeLoBkT-10" edge="1">
          <mxGeometry relative="1" as="geometry">
            <mxPoint x="91" y="230" as="targetPoint" />
          </mxGeometry>
        </mxCell>
        <mxCell id="nQAwpu2ed7etpFC_aMon-1" style="edgeStyle=orthogonalEdgeStyle;rounded=0;orthogonalLoop=1;jettySize=auto;html=1;exitX=1;exitY=0.5;exitDx=0;exitDy=0;entryX=0;entryY=0.5;entryDx=0;entryDy=0;" edge="1" parent="WIyWlLk6GJQsqaUBKTNV-1" source="dGlcEm0h6czmAKeLoBkT-10" target="nQAwpu2ed7etpFC_aMon-0">
          <mxGeometry relative="1" as="geometry" />
        </mxCell>
        <mxCell id="dGlcEm0h6czmAKeLoBkT-10" value="Import Module" style="rounded=1;whiteSpace=wrap;html=1;absoluteArcSize=1;arcSize=14;strokeWidth=2;" parent="WIyWlLk6GJQsqaUBKTNV-1" vertex="1">
          <mxGeometry x="41" y="260" width="100" height="100" as="geometry" />
        </mxCell>
        <mxCell id="nQAwpu2ed7etpFC_aMon-4" style="edgeStyle=orthogonalEdgeStyle;rounded=0;orthogonalLoop=1;jettySize=auto;html=1;exitX=1;exitY=0.5;exitDx=0;exitDy=0;entryX=0.016;entryY=0.493;entryDx=0;entryDy=0;entryPerimeter=0;" edge="1" parent="WIyWlLk6GJQsqaUBKTNV-1" source="nQAwpu2ed7etpFC_aMon-0" target="nQAwpu2ed7etpFC_aMon-3">
          <mxGeometry relative="1" as="geometry" />
        </mxCell>
        <mxCell id="nQAwpu2ed7etpFC_aMon-6" style="edgeStyle=orthogonalEdgeStyle;rounded=0;orthogonalLoop=1;jettySize=auto;html=1;exitX=0.5;exitY=0;exitDx=0;exitDy=0;entryX=0.5;entryY=1;entryDx=0;entryDy=0;" edge="1" parent="WIyWlLk6GJQsqaUBKTNV-1" source="nQAwpu2ed7etpFC_aMon-0" target="nQAwpu2ed7etpFC_aMon-5">
          <mxGeometry relative="1" as="geometry" />
        </mxCell>
        <mxCell id="nQAwpu2ed7etpFC_aMon-0" value="Boeking matching&lt;br&gt;Module" style="rounded=1;whiteSpace=wrap;html=1;absoluteArcSize=1;arcSize=14;strokeWidth=2;" vertex="1" parent="WIyWlLk6GJQsqaUBKTNV-1">
          <mxGeometry x="250" y="260" width="100" height="100" as="geometry" />
        </mxCell>
        <mxCell id="nQAwpu2ed7etpFC_aMon-3" value="Boeking" style="verticalLabelPosition=bottom;verticalAlign=top;html=1;shape=card;whiteSpace=wrap;size=20;arcSize=12;" vertex="1" parent="WIyWlLk6GJQsqaUBKTNV-1">
          <mxGeometry x="450" y="280" width="100" height="60" as="geometry" />
        </mxCell>
        <mxCell id="nQAwpu2ed7etpFC_aMon-5" value="Validator" style="rounded=1;whiteSpace=wrap;html=1;absoluteArcSize=1;arcSize=14;strokeWidth=2;" vertex="1" parent="WIyWlLk6GJQsqaUBKTNV-1">
          <mxGeometry x="250" y="70" width="100" height="100" as="geometry" />
        </mxCell>
        <mxCell id="nQAwpu2ed7etpFC_aMon-8" style="edgeStyle=orthogonalEdgeStyle;rounded=0;orthogonalLoop=1;jettySize=auto;html=1;exitX=0;exitY=0.5;exitDx=0;exitDy=0;entryX=1;entryY=0.5;entryDx=0;entryDy=0;entryPerimeter=0;" edge="1" parent="WIyWlLk6GJQsqaUBKTNV-1" source="nQAwpu2ed7etpFC_aMon-7" target="nQAwpu2ed7etpFC_aMon-3">
          <mxGeometry relative="1" as="geometry" />
        </mxCell>
        <mxCell id="nQAwpu2ed7etpFC_aMon-7" value="Reporting Module" style="rounded=1;whiteSpace=wrap;html=1;absoluteArcSize=1;arcSize=14;strokeWidth=2;" vertex="1" parent="WIyWlLk6GJQsqaUBKTNV-1">
          <mxGeometry x="650" y="260" width="100" height="100" as="geometry" />
        </mxCell>
      </root>
    </mxGraphModel>
  </diagram>
</mxfile>
